<?xml version="1.0"?>
<svg xmlns="http://www.w3.org/2000/svg" viewBox="-91 0 512 512" width="512px" height="512px"><path d="m98.890625 264.496094 66.109375-34.753906 66.109375 34.753906-12.625-73.613282 53.484375-52.136718-73.914062-10.738282-33.054688-66.980468-33.054688 66.980468-73.914062 10.738282 53.484375 52.136718zm52.976563-109.070313 13.132812-26.609375 13.132812 26.609375 29.367188 4.269531-21.25 20.710938 5.019531 29.25-26.269531-13.808594-26.269531 13.808594 5.019531-29.25-21.25-20.710938zm0 0" fill="#006DF0"/><path d="m297.519531 367.433594c-13.980469-10.171875-31.867187-18.511719-52.46875-24.550782l48.144531-72.992187c23.742188-29.269531 36.804688-66.128906 36.804688-103.890625 0-91.53125-74.019531-166-165-166s-165 74.46875-165 166c0 31.585938 8.957031 62.289062 25.902344 88.785156 1.019531 1.59375 2.066406 3.175782 3.128906 4.71875l55.492188 83.503906c-20.484376 6.046876-38.261719 14.378907-52.164063 24.515626-21.167969 15.4375-32.359375 34.273437-32.359375 54.476562 0 26.011719 18.546875 49.609375 52.226562 66.449219 30.375 15.1875 70.421876 23.550781 112.773438 23.550781s82.398438-8.363281 112.773438-23.550781c33.679687-16.839844 52.226562-40.4375 52.226562-66.449219 0-20.242188-11.230469-39.113281-32.480469-54.566406zm-243.648437-124.757813-2.765625-4.160156c-13.804688-21.636719-21.105469-46.710937-21.105469-72.515625 0-74.992188 60.5625-136 135-136s135 61.007812 135 136c0 31.113281-10.835938 61.472656-30.515625 85.492188l-.492187.601562-104.039063 157.734375-110.785156-166.707031.007812-.003906c-.101562-.148438-.203125-.292969-.304687-.441407zm111.128906 239.324219c-79.558594 0-135-31.621094-135-60 0-20.992188 29.164062-42.003906 72.027344-52.65625l63.019531 94.828125 62.601563-94.910156c43.054687 10.628906 72.351562 31.671875 72.351562 52.738281 0 28.378906-55.441406 60-135 60zm0 0" fill="#006DF0"/></svg>
