<?xml version="1.0" encoding="iso-8859-1"?>
<!-- Generator: Adobe Illustrator 19.0.0, SVG Export Plug-In . SVG Version: 6.00 Build 0)  -->
<svg xmlns="http://www.w3.org/2000/svg" xmlns:xlink="http://www.w3.org/1999/xlink" version="1.1" id="Capa_1" x="0px" y="0px" viewBox="0 0 539.077 539.077" style="enable-background:new 0 0 539.077 539.077;" xml:space="preserve" width="512px" height="512px">
<g>
	<g>
		<path d="M269.538,157.231c-43.344,0-78.615-35.272-78.615-78.615S226.195,0,269.538,0s78.615,35.272,78.615,78.615    S312.882,157.231,269.538,157.231z M269.538,22.462c-30.961,0-56.154,25.192-56.154,56.154s25.192,56.154,56.154,56.154    c30.972,0,56.154-25.192,56.154-56.154S300.511,22.462,269.538,22.462z" fill="#D80027"/>
		<path d="M269.538,539.077C138.871,539.077,0,503.652,0,438c0-53.39,92.073-84.297,178.234-95.418    c6.12-0.834,11.779,3.553,12.58,9.695c0.79,6.164-3.553,11.801-9.706,12.591C76.959,378.315,22.462,411.831,22.462,438    c0,37.18,101.472,78.615,247.077,78.615S516.615,475.18,516.615,438c0-26.169-54.487-59.685-158.613-73.132    c-6.142-0.79-10.485-6.427-9.695-12.591c0.812-6.164,6.208-10.507,12.591-9.695c86.139,11.143,178.179,42.05,178.179,95.418    C539.077,503.652,400.206,539.077,269.538,539.077z M269.538,482.923c-62.57,0-168.462-10.639-168.462-50.538    c0-19.851,25.752-34.394,76.532-43.278c6.12-1.25,11.922,3.005,12.997,9.125c1.064,6.098-3.016,11.933-9.136,12.986    c-45.066,7.897-57.185,18.908-57.963,21.409c3.038,9.388,55.858,27.836,146.033,27.836s142.995-18.447,146.022-28.318    c-0.768-2.018-12.81-13.008-57.689-20.904c-6.098-1.075-10.178-6.888-9.103-13.008c1.053-6.12,6.997-10.331,13.008-9.103    C412.358,398.034,438,412.577,438,432.385C438,472.285,332.097,482.923,269.538,482.923z M303.231,426.769h-67.385    c-6.208,0-11.231-5.023-11.231-11.231V326.46c-43.837-20.992-67.385-83.924-67.385-135.537c0-6.208,5.023-11.231,11.231-11.231    h202.154c6.208,0,11.231,5.023,11.231,11.231c0,51.613-23.558,114.545-67.385,135.537v89.078    C314.462,421.746,309.438,426.769,303.231,426.769z M247.077,404.308H292v-85.349c0-4.782,3.005-9.015,7.524-10.595    c34.043-11.933,56.132-62.109,59.444-106.21H180.12c3.29,44.101,25.39,94.277,59.433,106.21c4.508,1.579,7.524,5.813,7.524,10.595    V404.308z" fill="#D80027"/>
	</g>
</g>
<g>
</g>
<g>
</g>
<g>
</g>
<g>
</g>
<g>
</g>
<g>
</g>
<g>
</g>
<g>
</g>
<g>
</g>
<g>
</g>
<g>
</g>
<g>
</g>
<g>
</g>
<g>
</g>
<g>
</g>
</svg>
